<svg xmlns="http://www.w3.org/2000/svg" id="Layer_1" x="0" y="0" enable-background="new 0 0 53 53" version="1.1" viewBox="0 0 53 53" xml:space="preserve"><g><g><g><path d="M43.8554688,43.4213867H4.5717773c-1.7832031,0-3.234375-1.4506836-3.234375-3.2338867V14.4697266
				c0-0.4140625,0.3359375-0.75,0.75-0.75h44.2524414c0.4140625,0,0.75,0.3359375,0.75,0.75V40.1875
				C47.0898438,41.9707031,45.6386719,43.4213867,43.8554688,43.4213867z M2.8374023,15.2197266V40.1875
				c0,0.9560547,0.777832,1.7338867,1.734375,1.7338867h39.2836914c0.956543,0,1.734375-0.777832,1.734375-1.7338867V15.2197266
				H2.8374023z"/></g><g><path fill="#986de7" d="M46.3373032,14.473711V6.2796111c0-1.3713999-1.1118011-2.4832001-2.4831848-2.4832001H4.5681167
				c-1.3715134,0-2.4833133,1.1118002-2.4833133,2.4832001v8.1940994H46.3373032z"/><path d="M46.3374023,15.2236328H2.0849609c-0.4140625,0-0.75-0.3359375-0.75-0.75V6.2797852
				c0-1.7827148,1.4506836-3.2333984,3.2333984-3.2333984h39.2856445c1.7827148,0,3.2333984,1.4506836,3.2333984,3.2333984
				v8.1938477C47.0874023,14.8876953,46.7514648,15.2236328,46.3374023,15.2236328z M2.8349609,13.7236328h42.7524414V6.2797852
				c0-0.9555664-0.777832-1.7333984-1.7333984-1.7333984H4.5683594c-0.9555664,0-1.7333984,0.777832-1.7333984,1.7333984V13.7236328
				z"/></g><g><path fill="#fff" d="M11.4689026,9.036911c0,1.0775995-0.8741999,1.9518003-1.9516993,1.9518003
				c-1.0876999,0-1.9620004-0.8742008-1.9620004-1.9518003c0-1.0774999,0.8743005-1.9517002,1.9620004-1.9517002
				C10.5947027,7.0852108,11.4689026,7.9594111,11.4689026,9.036911z"/><path d="M9.5170898,11.7387695c-1.4951172,0-2.7119141-1.2119141-2.7119141-2.7016602s1.2167969-2.7016602,2.7119141-2.7016602
				c1.4897461,0,2.7016602,1.2119141,2.7016602,2.7016602S11.0068359,11.7387695,9.5170898,11.7387695z M9.5170898,7.8354492
				c-0.668457,0-1.2119141,0.5390625-1.2119141,1.2016602s0.543457,1.2016602,1.2119141,1.2016602
				c0.6625977,0,1.2016602-0.5390625,1.2016602-1.2016602S10.1796875,7.8354492,9.5170898,7.8354492z"/></g><g><path d="M9.512207,9.1113281c-0.4140625,0-0.75-0.3359375-0.75-0.75V2.1611328c0-0.4140625,0.3359375-0.75,0.75-0.75
				s0.75,0.3359375,0.75,0.75v6.2001953C10.262207,8.7753906,9.9262695,9.1113281,9.512207,9.1113281z"/></g><g><path fill="#fff" d="M24.8756027,9.036911c0,1.0775995-0.8742008,1.9518003-1.9517002,1.9518003
				c-1.0876999,0-1.9619999-0.8742008-1.9619999-1.9518003c0-1.0774999,0.8743-1.9517002,1.9619999-1.9517002
				C24.0014019,7.0852108,24.8756027,7.9594111,24.8756027,9.036911z"/><path d="M22.9238281,11.7387695c-1.4951172,0-2.7119141-1.2119141-2.7119141-2.7016602s1.2167969-2.7016602,2.7119141-2.7016602
				c1.4897461,0,2.7016602,1.2119141,2.7016602,2.7016602S24.4135742,11.7387695,22.9238281,11.7387695z M22.9238281,7.8354492
				c-0.668457,0-1.2119141,0.5390625-1.2119141,1.2016602s0.543457,1.2016602,1.2119141,1.2016602
				c0.6625977,0,1.2016602-0.5390625,1.2016602-1.2016602S23.5864258,7.8354492,22.9238281,7.8354492z"/></g><g><path d="M22.9189453,9.1113281c-0.4140625,0-0.75-0.3359375-0.75-0.75V2.1611328c0-0.4140625,0.3359375-0.75,0.75-0.75
				s0.75,0.3359375,0.75,0.75v6.2001953C23.6689453,8.7753906,23.3330078,9.1113281,22.9189453,9.1113281z"/></g><g><path fill="#fff" d="M38.2823029,9.036911c0,1.0775995-0.8741875,1.9518003-1.9518013,1.9518003
				c-1.0876999,0-1.9618988-0.8742008-1.9618988-1.9518003c0-1.0774999,0.8741989-1.9517002,1.9618988-1.9517002
				C37.4081154,7.0852108,38.2823029,7.9594111,38.2823029,9.036911z"/><path d="M36.3305664,11.7387695c-1.4951172,0-2.7119141-1.2119141-2.7119141-2.7016602s1.2167969-2.7016602,2.7119141-2.7016602
				c1.4897461,0,2.7016602,1.2119141,2.7016602,2.7016602S37.8203125,11.7387695,36.3305664,11.7387695z M36.3305664,7.8354492
				c-0.668457,0-1.2119141,0.5390625-1.2119141,1.2016602s0.543457,1.2016602,1.2119141,1.2016602
				c0.6625977,0,1.2016602-0.5390625,1.2016602-1.2016602S36.9931641,7.8354492,36.3305664,7.8354492z"/></g><g><path d="M36.3251953,9.1113281c-0.4140625,0-0.75-0.3359375-0.75-0.75V2.1611328c0-0.4140625,0.3359375-0.75,0.75-0.75
				s0.75,0.3359375,0.75,0.75v6.2001953C37.0751953,8.7753906,36.7392578,9.1113281,36.3251953,9.1113281z"/></g></g><g><g><g><path d="M19.1035156,36.5146484c-0.4140625,0-0.75-0.3359375-0.75-0.75V20.1469727c0-0.4140625,0.3359375-0.75,0.75-0.75
					s0.75,0.3359375,0.75,0.75v15.6176758C19.8535156,36.1787109,19.5175781,36.5146484,19.1035156,36.5146484z"/></g><g><path d="M28.9526367,36.5146484c-0.4140625,0-0.75-0.3359375-0.75-0.75V20.1469727c0-0.4140625,0.3359375-0.75,0.75-0.75
					s0.75,0.3359375,0.75,0.75v15.6176758C29.7026367,36.1787109,29.3666992,36.5146484,28.9526367,36.5146484z"/></g></g><g><g><path d="M36.1279297,24.5400391H12.296875c-0.4140625,0-0.75-0.3359375-0.75-0.75s0.3359375-0.75,0.75-0.75h23.8310547
					c0.4140625,0,0.75,0.3359375,0.75,0.75S36.5419922,24.5400391,36.1279297,24.5400391z"/></g><g><path d="M36.1279297,32.6303711H12.296875c-0.4140625,0-0.75-0.3359375-0.75-0.75s0.3359375-0.75,0.75-0.75h23.8310547
					c0.4140625,0,0.75,0.3359375,0.75,0.75S36.5419922,32.6303711,36.1279297,32.6303711z"/></g></g></g><g><circle cx="41.777" cy="41.701" r="9.138" fill="#ffd364" transform="rotate(-76.664 41.777 41.701)"/><path d="M41.7773438,51.5888672c-5.4521484,0-9.8876953-4.4355469-9.8876953-9.8876953s4.4355469-9.8876953,9.8876953-9.8876953
			s9.8876953,4.4355469,9.8876953,9.8876953S47.2294922,51.5888672,41.7773438,51.5888672z M41.7773438,33.3134766
			c-4.625,0-8.3876953,3.7626953-8.3876953,8.3876953s3.7626953,8.3876953,8.3876953,8.3876953
			s8.3876953-3.7626953,8.3876953-8.3876953S46.4023438,33.3134766,41.7773438,33.3134766z"/></g><g><g><path d="M43.3901367,45.9384766h-3.2255859c-0.7236328,0-1.3120117-0.5883789-1.3120117-1.3120117
				c0-0.4140625,0.3359375-0.75,0.75-0.75c0.3491211,0,0.6425781,0.2387695,0.7260742,0.5620117h2.8735352v-1.9873047h-3.0375977
				c-0.7236328,0-1.3120117-0.5883789-1.3120117-1.3120117v-2.3632812c0-0.7236328,0.5883789-1.3120117,1.3120117-1.3120117
				h3.2255859c0.7236328,0,1.3120117,0.5883789,1.3120117,1.3120117c0,0.4140625-0.3359375,0.75-0.75,0.75
				c-0.3491211,0-0.6425781-0.2387695-0.7260742-0.5620117h-2.8735352v1.9873047h3.0375977
				c0.7236328,0,1.3120117,0.5888672,1.3120117,1.3125v2.362793C44.7021484,45.3500977,44.1137695,45.9384766,43.3901367,45.9384766
				z M40.3525391,44.6264648h0.0097656H40.3525391z"/></g><g><path d="M41.7773438,38.9057617c-0.4140625,0-0.75-0.3359375-0.75-0.75v-1.3007812c0-0.4140625,0.3359375-0.75,0.75-0.75
				s0.75,0.3359375,0.75,0.75v1.3007812C42.5273438,38.5698242,42.1914062,38.9057617,41.7773438,38.9057617z"/></g><g><path d="M41.7773438,47.2973633c-0.4140625,0-0.75-0.3359375-0.75-0.75v-1.300293c0-0.4140625,0.3359375-0.75,0.75-0.75
				s0.75,0.3359375,0.75,0.75v1.300293C42.5273438,46.9614258,42.1914062,47.2973633,41.7773438,47.2973633z"/></g></g><g><path d="M23.0498047,29.4111328c-0.2431641,0-0.480957-0.1186523-0.6245117-0.3339844l-0.7290039-1.0932617
			c-0.2299805-0.3447266-0.1367188-0.8100586,0.2080078-1.0400391c0.34375-0.2314453,0.8105469-0.137207,1.0400391,0.2080078
			l0.3481445,0.5219727l1.7900391-0.9770508c0.362793-0.1987305,0.8183594-0.0654297,1.0175781,0.2988281
			c0.1987305,0.3637695,0.0649414,0.8193359-0.2988281,1.0175781l-2.3925781,1.3061523
			C23.2949219,29.3813477,23.171875,29.4111328,23.0498047,29.4111328z"/></g></g></svg>