<svg xmlns="http://www.w3.org/2000/svg" id="Layer_1" x="0" y="0" enable-background="new 0 0 53 53" version="1.1" viewBox="0 0 53 53" xml:space="preserve"><g><g><path fill="#9fd25a" d="M47.6507187,41.3978271v8.6156006c0,0.3972015-0.4519997,0.6253014-0.7714996,0.3894997l-4.7263985-3.4878998
			c-0.1709023-0.1260986-0.4039993-0.1260986-0.5748024,0l-4.7263985,3.4878998
			c-0.3195992,0.2358017-0.7714996,0.0077019-0.7714996-0.3894997v-8.6156006H47.6507187z"/><path d="M36.5654297,51.248394c-0.1894531,0-0.3798828-0.0439453-0.5566406-0.1328125
			c-0.4189453-0.2109375-0.6787109-0.6337891-0.6787109-1.1025391v-8.6152344c0-0.4140625,0.3359375-0.75,0.75-0.75h11.5703125
			c0.4140625,0,0.75,0.3359375,0.75,0.75v8.6152344c0,0.46875-0.2597656,0.8916016-0.6787109,1.1025391
			c-0.4179688,0.2109375-0.9111328,0.1689453-1.2890625-0.1103516l-4.5673828-3.3701172l-4.5683594,3.3710938
			C37.0800781,51.1663628,36.8242188,51.248394,36.5654297,51.248394z M36.8300781,42.1478081v7.3388672l4.3027344-3.1748047
			c0.4375-0.3222656,1.0273438-0.3222656,1.4648438,0l4.3027344,3.1748047v-7.3388672H36.8300781z"/></g><g><path fill="#cdd5d7" d="M50.5003204,4.9287286v31.7018986c0,1.3408012-1.0868988,2.427803-2.4277,2.427803H4.9281201
			c-1.3408003,0-2.4278002-1.0870018-2.4278002-2.427803V4.9287286c0-1.3408,1.0869999-2.4277,2.4278002-2.4277h43.1445007
			C49.4134216,2.5010285,50.5003204,3.5879285,50.5003204,4.9287286z"/><path d="M48.0722656,39.8079643H4.9277344c-1.7519531,0-3.1777344-1.4257812-3.1777344-3.1777344V4.929059
			c0-1.7519531,1.4257812-3.1777344,3.1777344-3.1777344h43.1445312c1.7519531,0,3.1777344,1.4257814,3.1777344,3.1777344
			v31.7011719C51.25,38.3821831,49.8242188,39.8079643,48.0722656,39.8079643z M4.9277344,3.2513247
			C4.0029297,3.2513247,3.25,4.0042543,3.25,4.929059v31.7011719c0,0.9248047,0.7529297,1.6777344,1.6777344,1.6777344h43.1445312
			c0.9248047,0,1.6777344-0.7529297,1.6777344-1.6777344V4.929059c0-0.9248047-0.7529297-1.6777344-1.6777344-1.6777344H4.9277344z"/></g><g><path fill="#fff" d="M6.50032,30.2822285V11.2774286c2.6377997,0,4.7761998-2.1384001,4.7761998-4.7762003h30.4477005
			c0,2.6378002,2.138401,4.7762003,4.7761002,4.7762003v19.0047989c-2.6376991,0-4.7761002,2.1383991-4.7761002,4.7762012
			H11.2765198C11.2765198,32.4206276,9.1381197,30.2822285,6.50032,30.2822285z"/><path d="M41.7246094,35.8079643H11.2763672c-0.4140625,0-0.75-0.3359375-0.75-0.75
			c0-2.2197266-1.8066406-4.0253906-4.0263672-4.0253906c-0.4140625,0-0.75-0.3359375-0.75-0.75V11.2776918
			c0-0.4140625,0.3359375-0.75,0.75-0.75c2.2197266,0,4.0263672-1.8066406,4.0263672-4.0263672
			c0-0.4140625,0.3359375-0.75,0.75-0.75h30.4482422c0.4140625,0,0.75,0.3359375,0.75,0.75
			c0,2.2197266,1.8056641,4.0263672,4.0253906,4.0263672c0.4140625,0,0.75,0.3359375,0.75,0.75v19.0048828
			c0,0.4140625-0.3359375,0.75-0.75,0.75c-2.2197266,0-4.0253906,1.8056641-4.0253906,4.0253906
			C42.4746094,35.4720268,42.1386719,35.8079643,41.7246094,35.8079643z M11.9755859,34.3079643h29.0498047
			c0.3339844-2.4482422,2.2763672-4.390625,4.7246094-4.7246094V11.9769106
			c-2.4482422-0.3339844-4.3916016-2.2773438-4.7246094-4.7255859H11.9755859
			C11.6425781,9.6995668,9.6982422,11.6439028,7.25,11.9769106v17.6064453
			C9.6982422,29.9163628,11.6416016,31.8597221,11.9755859,34.3079643z"/></g><g><path fill="#ff6f5c" d="M34.0920181,13.7389288v1.5717993c0,0.3313007-0.2685966,0.5999002-0.5998993,0.5999002H19.5086193
			c-0.3312988,0-0.5998993-0.2685995-0.5998993-0.5999002v-1.5717993c0-0.2360001,0.1382999-0.4500999,0.3535004-0.5469999
			l6.9918003-3.1493006c0.1567001-0.0704994,0.3360996-0.0704994,0.4927998,0l6.9917011,3.1493006
			C33.9536209,13.2888288,34.0920181,13.5029287,34.0920181,13.7389288z"/><path d="M33.4921875,16.6605034H19.5087891c-0.7441406,0-1.3496094-0.6054688-1.3496094-1.3496084v-1.5722656
			c0-0.53125,0.3125-1.0146484,0.796875-1.2314453l6.9902344-3.1484375C26.2988281,9.2005434,26.7011719,9.20152,27.0537109,9.35777
			l6.9921875,3.1503906c0.4833984,0.2158203,0.7958984,0.6992188,0.7958984,1.2304688v1.5722656
			C34.8417969,16.0550346,34.2363281,16.6605034,33.4921875,16.6605034z M19.6591797,15.1605043h13.6826172V13.835309
			l-6.8408203-3.0810547l-6.8417969,3.0810547V15.1605043z"/></g><g><g><path d="M20.8466797,22.2288628c-0.4140625,0-0.75-0.3359375-0.75-0.75v-5.5683584c0-0.4140625,0.3359375-0.75,0.75-0.75
				s0.75,0.3359375,0.75,0.75v5.5683584C21.5966797,21.8929253,21.2607422,22.2288628,20.8466797,22.2288628z"/></g><g><path d="M24.6162109,22.2288628c-0.4140625,0-0.75-0.3359375-0.75-0.75v-5.5683584c0-0.4140625,0.3359375-0.75,0.75-0.75
				s0.75,0.3359375,0.75,0.75v5.5683584C25.3662109,21.8929253,25.0302734,22.2288628,24.6162109,22.2288628z"/></g><g><path d="M28.3847656,22.2288628c-0.4140625,0-0.75-0.3359375-0.75-0.75v-5.5683584c0-0.4140625,0.3359375-0.75,0.75-0.75
				s0.75,0.3359375,0.75,0.75v5.5683584C29.1347656,21.8929253,28.7988281,22.2288628,28.3847656,22.2288628z"/></g><g><path d="M32.1533203,22.2288628c-0.4140625,0-0.75-0.3359375-0.75-0.75v-5.5683584c0-0.4140625,0.3359375-0.75,0.75-0.75
				s0.75,0.3359375,0.75,0.75v5.5683584C32.9033203,21.8929253,32.5673828,22.2288628,32.1533203,22.2288628z"/></g></g><g><path fill="#ff6f5c" d="M33.6220207,24.3503284H19.3787193c-0.2595997,0-0.4699993-0.2105007-0.4699993-0.4699993V21.949028
			c0-0.2595997,0.2103996-0.4699993,0.4699993-0.4699993h14.2433014c0.2595978,0,0.4699974,0.2103996,0.4699974,0.4699993v1.9313011
			C34.0920181,24.1398277,33.8816185,24.3503284,33.6220207,24.3503284z"/><path d="M33.6220703,25.0999565H19.3789062c-0.6728516,0-1.2197266-0.546875-1.2197266-1.2197266v-1.9316406
			c0-0.6728516,0.546875-1.2197266,1.2197266-1.2197266h14.2431641c0.6728516,0,1.2197266,0.546875,1.2197266,1.2197266v1.9316406
			C34.8417969,24.5530815,34.2949219,25.0999565,33.6220703,25.0999565z M19.6591797,23.5999565h13.6826172v-1.3710938H19.6591797
			V23.5999565z"/></g><g><path d="M31.1601562,29.2435112H16.3701172c-0.4140625,0-0.75-0.3359375-0.75-0.75s0.3359375-0.75,0.75-0.75h14.7900391
			c0.4140625,0,0.75,0.3359375,0.75,0.75S31.5742188,29.2435112,31.1601562,29.2435112z"/></g><g><path fill="#fff" d="M50.5003204,35.0697289c0,4.7694016-3.8703995,8.6301994-8.639801,8.6301994
			c-4.7598,0-8.6301003-3.8607979-8.6301003-8.6301994c0-4.7693005,3.8703003-8.6301994,8.6301003-8.6301994
			C46.629921,26.4395294,50.5003204,30.3004284,50.5003204,35.0697289z"/><path d="M41.8603516,44.4495659c-5.171875,0-9.3798828-4.2080078-9.3798828-9.3798828s4.2080078-9.3798828,9.3798828-9.3798828
			c5.1777344,0,9.3896484,4.2080078,9.3896484,9.3798828S47.0380859,44.4495659,41.8603516,44.4495659z M41.8603516,27.1898003
			c-4.3447266,0-7.8798828,3.5351562-7.8798828,7.8798828s3.5351562,7.8798828,7.8798828,7.8798828
			c4.3505859,0,7.8896484-3.5351562,7.8896484-7.8798828S46.2109375,27.1898003,41.8603516,27.1898003z"/></g><g><path fill="#ffd364" d="M42.4665184,31.3997288l0.9398003,1.904398l2.1016006,0.3054008
			c0.5498009,0.0799026,0.7693024,0.7555008,0.3715019,1.1432991l-1.5207024,1.4823036l0.3590012,2.0931969
			c0.0938988,0.5475006-0.4808006,0.9651031-0.972599,0.7066002l-1.8796997-0.9883003l-1.8798027,0.9883003
			c-0.4916992,0.258503-1.0663986-0.1590996-0.9724998-0.7066002l0.3590012-2.0931969l-1.5208015-1.4823036
			c-0.3977966-0.3877983-0.178299-1.0633965,0.3715019-1.1432991l2.1016006-0.3054008l0.9398994-1.904398
			C41.5102196,30.9015293,42.2206192,30.9015293,42.4665184,31.3997288z"/><path d="M39.6728516,39.8636284c-0.2939453,0-0.5849609-0.0917969-0.8339844-0.2724609
			c-0.4404297-0.3203125-0.6572266-0.8525391-0.5654297-1.3896484l0.2929688-1.7050781l-1.2382812-1.2060547
			c-0.390625-0.3808594-0.5283203-0.9384766-0.3603516-1.4560547c0.1689453-0.5175781,0.6083984-0.8886719,1.1464844-0.9667969
			l1.7119141-0.2490234l0.765625-1.5507812c0.2402344-0.4873047,0.7275391-0.7910156,1.2724609-0.7910156h0.0009766
			c0.5449219,0,1.0332031,0.3027344,1.2744141,0.7910156l0,0l0.7646484,1.5507812l1.7119141,0.2490234
			c0.5380859,0.078125,0.9775391,0.4482422,1.1455078,0.9658203c0.1689453,0.5175781,0.0322266,1.0751953-0.3574219,1.4560547
			l-1.2402344,1.2070312l0.2929688,1.7050781c0.0917969,0.5371094-0.125,1.0693359-0.5654297,1.3886719
			s-1.0146484,0.3623047-1.4951172,0.1083984l-1.53125-0.8046875l-1.53125,0.8046875
			C40.125,39.8089409,39.8984375,39.8636284,39.6728516,39.8636284z M41.8652344,37.2962456
			c0.1201172,0,0.2402344,0.0283203,0.3486328,0.0859375l1.7373047,0.9130859l-0.3320312-1.9335938
			c-0.0419922-0.2431641,0.0390625-0.4921875,0.2158203-0.6640625l1.40625-1.3691406l-1.9433594-0.2822266
			c-0.2441406-0.0351562-0.4550781-0.1894531-0.5644531-0.4101562l-0.8916016-1.8085938l-0.8447266,1.8085938
			c-0.109375,0.2216797-0.3203125,0.375-0.5644531,0.4101562l-1.9423828,0.2822266l1.4052734,1.3691406
			c0.1767578,0.171875,0.2578125,0.4208984,0.2158203,0.6640625l-0.3320312,1.9335938l1.7373047-0.9130859
			C41.625,37.3245659,41.7451172,37.2962456,41.8652344,37.2962456z M41.7939453,31.7317924L41.7939453,31.7317924
			c0.0009766,0,0.0009766,0,0.0009766,0H41.7939453z"/></g></g></svg>