<svg xmlns="http://www.w3.org/2000/svg" id="Layer_1" x="0" y="0" enable-background="new 0 0 53 53" version="1.1" viewBox="0 0 53 53" xml:space="preserve"><g><g><path d="M15.4829102,38.1481934c-0.1987305,0-0.3896484-0.0791016-0.5302734-0.2197266s-0.2197266-0.331543-0.2197266-0.5302734
			c0-1.9150391-0.9487305-3.7558594-2.5380859-4.9233398C8.4824219,29.7468262,6.265625,25.3693848,6.265625,20.7653809
			c0-4.1206055,1.7631836-8.0615234,4.8378906-10.8125c3.121582-2.7919922,7.1547852-4.0693359,11.3544922-3.6035156
			c6.4555664,0.7202148,11.7929688,5.9003906,12.6918945,12.315918l0,0
			c0.7490234,5.3491211-1.4677734,10.6416016-5.7856445,13.8120117c-1.5869141,1.1655273-2.5341797,3.0048828-2.5341797,4.9204102
			c0,0.4140625-0.3359375,0.75-0.75,0.75L15.4829102,38.1481934z M16.1943359,36.6481934h9.1743164
			c0.2172852-2.1137695,1.3447266-4.0849609,3.1079102-5.3798828c3.8725586-2.84375,5.8603516-7.5927734,5.1879883-12.3950195l0,0
			c-0.8046875-5.7475586-5.5878906-10.3876953-11.3725586-11.0327148
			c-3.7734375-0.4208984-7.3891602,0.7270508-10.1879883,3.2304688c-2.7573242,2.4663086-4.3383789,6-4.3383789,9.6943359
			c0,4.128418,1.987793,8.0541992,5.3173828,10.5004883C14.8481445,32.5627441,15.9765625,34.5349121,16.1943359,36.6481934z"/></g><g><path fill="#986de7" d="M28.8249989,39.6856461L28.8249989,39.6856461c0,1.2635994-1.0243015,2.287899-2.2879009,2.287899H15.0260983
			c-1.2636003,0-2.2879-1.0242996-2.2879-2.287899l0,0c0-1.2635994,1.0242996-2.288002,2.2879-2.288002h11.5109997
			C27.8006973,37.397644,28.8249989,38.4220467,28.8249989,39.6856461z"/><path d="M26.5371094,42.7233887H15.0258789c-1.6748047,0-3.0375977-1.362793-3.0375977-3.0375977
			c0-1.675293,1.362793-3.0380859,3.0375977-3.0380859h11.5112305c1.675293,0,3.0380859,1.362793,3.0380859,3.0380859
			C29.5751953,41.3605957,28.2124023,42.7233887,26.5371094,42.7233887z M15.0258789,38.1477051
			c-0.8476562,0-1.5375977,0.6899414-1.5375977,1.5380859c0,0.8476562,0.6899414,1.5375977,1.5375977,1.5375977h11.5112305
			c0.8481445,0,1.5380859-0.6899414,1.5380859-1.5375977c0-0.8481445-0.6899414-1.5380859-1.5380859-1.5380859H15.0258789z"/></g><g><path fill="#986de7" d="M28.8249989,44.2614441L28.8249989,44.2614441c0,1.2635994-1.0243015,2.288002-2.2879009,2.288002H15.0260983
			c-1.2636003,0-2.2879-1.0244026-2.2879-2.288002l0,0c0-1.2635994,1.0242996-2.287899,2.2879-2.287899h11.5109997
			C27.8006973,41.9735451,28.8249989,42.9978447,28.8249989,44.2614441z"/><path d="M26.5371094,47.2995605H15.0258789c-1.6748047,0-3.0375977-1.362793-3.0375977-3.0380859
			s1.362793-3.0380859,3.0375977-3.0380859h11.5112305c1.675293,0,3.0380859,1.362793,3.0380859,3.0380859
			S28.2124023,47.2995605,26.5371094,47.2995605z M15.0258789,42.7233887c-0.8476562,0-1.5375977,0.6899414-1.5375977,1.5380859
			s0.6899414,1.5380859,1.5375977,1.5380859h11.5112305c0.8481445,0,1.5380859-0.6899414,1.5380859-1.5380859
			s-0.6899414-1.5380859-1.5380859-1.5380859H15.0258789z"/></g><g><path d="M20.7817383,51.0583496c-1.8833008,0-3.4155273-1.5322266-3.4155273-3.4155273v-1.0961914
			c0-0.4140625,0.3359375-0.75,0.75-0.75h5.3305664c0.4140625,0,0.75,0.3359375,0.75,0.75v1.0961914
			C24.1967773,49.526123,22.6650391,51.0583496,20.7817383,51.0583496z M18.8662109,47.2966309v0.3461914
			c0,1.0561523,0.859375,1.9155273,1.9155273,1.9155273s1.9150391-0.859375,1.9150391-1.9155273v-0.3461914H18.8662109z"/></g><g><path fill="#ffd364" d="M28.7598114,20.2955456c0,4.3969994-3.5762138,7.9731998-7.9833126,7.9731998
			c-4.3969002,0-7.9732008-3.5762005-7.9732008-7.9731998c0-4.4070005,3.5763006-7.9833002,7.9732008-7.9833002
			C25.1835976,12.3122454,28.7598114,15.888545,28.7598114,20.2955456z"/><path d="M20.7763672,29.0187988c-4.8100586,0-8.7231445-3.9130859-8.7231445-8.7231445
			c0-4.8154297,3.9130859-8.7333984,8.7231445-8.7333984c4.8154297,0,8.7333984,3.9179688,8.7333984,8.7333984
			C29.5097656,25.1057129,25.5917969,29.0187988,20.7763672,29.0187988z M20.7763672,13.0622559
			c-3.9829102,0-7.2231445,3.2451172-7.2231445,7.2333984c0,3.9829102,3.2402344,7.2231445,7.2231445,7.2231445
			c3.9882812,0,7.2333984-3.2402344,7.2333984-7.2231445C28.0097656,16.307373,24.7646484,13.0622559,20.7763672,13.0622559z"/></g><g><path d="M20.7817383,4.7580566c-0.4140625,0-0.75-0.3359375-0.75-0.75V2.5012207c0-0.4140625,0.3359375-0.75,0.75-0.75
			s0.75,0.3359375,0.75,0.75v1.5068359C21.5317383,4.4221191,21.1958008,4.7580566,20.7817383,4.7580566z"/></g><g><path d="M9.2680664,9.5270996c-0.1918945,0-0.3837891-0.0732422-0.5302734-0.2197266L7.6723633,8.2419434
			c-0.2929688-0.2929688-0.2929688-0.7675781,0-1.0605469s0.7675781-0.2929688,1.0605469,0l1.0654297,1.0654297
			c0.2929688,0.2929688,0.2929688,0.7675781,0,1.0605469C9.6518555,9.4538574,9.4599609,9.5270996,9.2680664,9.5270996z"/></g><g><path d="M4.4990234,21.0407715H2.9926758c-0.4140625,0-0.75-0.3359375-0.75-0.75s0.3359375-0.75,0.75-0.75h1.5063477
			c0.4140625,0,0.75,0.3359375,0.75,0.75S4.9130859,21.0407715,4.4990234,21.0407715z"/></g><g><path d="M38.5708008,21.0407715h-1.5068359c-0.4140625,0-0.75-0.3359375-0.75-0.75s0.3359375-0.75,0.75-0.75h1.5068359
			c0.4140625,0,0.75,0.3359375,0.75,0.75S38.9848633,21.0407715,38.5708008,21.0407715z"/></g><g><path d="M32.2949219,9.5270996c-0.1918945,0-0.3837891-0.0732422-0.5302734-0.2197266
			c-0.2929688-0.2929688-0.2929688-0.7675781,0-1.0605469l1.0654297-1.0654297c0.2929688-0.2929688,0.7675781-0.2929688,1.0605469,0
			s0.2929688,0.7675781,0,1.0605469L32.8251953,9.307373C32.6787109,9.4538574,32.4868164,9.5270996,32.2949219,9.5270996z"/></g><g><g><path d="M18.6845703,38.1477051c-0.4140625,0-0.75-0.3359375-0.75-0.75v-5.2568359l-2.1044922-4.6479492
				c-0.1708984-0.3774414-0.003418-0.8217773,0.3735352-0.9926758c0.3779297-0.1723633,0.8212891-0.0043945,0.9926758,0.3735352
				l2.1713867,4.7954102c0.0439453,0.097168,0.0668945,0.2026367,0.0668945,0.3095703v5.4189453
				C19.4345703,37.8117676,19.0986328,38.1477051,18.6845703,38.1477051z"/></g><g><path d="M22.878418,38.1477051c-0.4140625,0-0.75-0.3359375-0.75-0.75v-5.4189453
				c0-0.1069336,0.0229492-0.2124023,0.0668945-0.3095703l2.1713867-4.7954102
				c0.1708984-0.3774414,0.6137695-0.5449219,0.9926758-0.3735352c0.3769531,0.1708984,0.5444336,0.6152344,0.3735352,0.9926758
				l-2.1044922,4.6479492v5.2568359C23.628418,37.8117676,23.2924805,38.1477051,22.878418,38.1477051z"/></g></g><g><g><path d="M20.9516602,23.7092285c0,0,0,0-0.0004883,0c-1.0043945,0-1.9472656-0.3930664-2.6552734-1.1064453
				c-1.4633789-1.4633789-1.4643555-3.8549805,0-5.3300781c0.7128906-0.7128906,1.6591797-1.1040039,2.6674805-1.1040039
				c0.0024414,0,0.0048828,0,0.0073242,0c1.0068359,0.0014648,1.949707,0.394043,2.6542969,1.1040039
				c0.2919922,0.2939453,0.2900391,0.769043-0.0039062,1.0605469c-0.2944336,0.2915039-0.769043,0.2905273-1.0605469-0.0039062
				c-0.421875-0.4248047-0.9873047-0.659668-1.5922852-0.6611328c-0.0014648,0-0.0029297,0-0.0043945,0
				c-0.6079102,0-1.1777344,0.2353516-1.6054688,0.6630859c-0.8813477,0.8881836-0.8823242,2.3305664,0,3.2128906
				c0.4262695,0.4296875,0.9912109,0.6650391,1.5927734,0.6650391c0.0004883,0,0.0004883,0,0.0004883,0
				c0.6074219,0,1.1787109-0.2382812,1.6088867-0.671875c0.2915039-0.2944336,0.7661133-0.2963867,1.0605469-0.0039062
				c0.2939453,0.2915039,0.2958984,0.7666016,0.0039062,1.0605469
				C22.9111328,23.3132324,21.9614258,23.7092285,20.9516602,23.7092285z"/></g><g><path d="M20.2148438,20.689209h-3.7016602c-0.4140625,0-0.75-0.3359375-0.75-0.75s0.3359375-0.75,0.75-0.75h3.7016602
				c0.4140625,0,0.75,0.3359375,0.75,0.75S20.6289062,20.689209,20.2148438,20.689209z"/></g></g><g><path d="M41.7416992,51.2487793c-1.8867188,0-3.4213867-1.5351562-3.4213867-3.421875v-1.9916992
			c0-1.1801758-0.9599609-2.1401367-2.1401367-2.1401367s-2.1401367,0.9599609-2.1401367,2.1401367v1.8017578
			c0,1.8867188-1.534668,3.4213867-3.4213867,3.4213867h-9.8369141c-0.4140625,0-0.75-0.3359375-0.75-0.75s0.3359375-0.75,0.75-0.75
			h9.8369141c1.0595703,0,1.9213867-0.8618164,1.9213867-1.9213867v-1.8017578c0-2.0073242,1.6328125-3.6401367,3.6401367-3.6401367
			s3.6401367,1.6328125,3.6401367,3.6401367v1.9916992c0,1.0595703,0.8618164,1.921875,1.9213867,1.921875
			s1.9213867-0.8623047,1.9213867-1.921875v-7.8901367c0-0.4140625,0.3359375-0.75,0.75-0.75s0.75,0.3359375,0.75,0.75v7.8901367
			C45.1630859,49.713623,43.628418,51.2487793,41.7416992,51.2487793z"/></g><g><path fill="#ff6f5c" d="M48.6009979,32.2905464v3.4585991c0,2.3121986-1.875,4.1872978-4.1871872,4.1872978
			c-2.3122139,0-4.1872139-1.8750992-4.1872139-4.1872978v-3.4585991H48.6009979z"/><path d="M44.4135742,40.6862793c-2.722168,0-4.9370117-2.2148438-4.9370117-4.9370117v-3.4584961
			c0-0.4140625,0.3359375-0.75,0.75-0.75h8.3745117c0.4140625,0,0.75,0.3359375,0.75,0.75v3.4584961
			C49.3510742,38.4714355,47.1362305,40.6862793,44.4135742,40.6862793z M40.9765625,33.0407715v2.7084961
			c0,1.8950195,1.5419922,3.4370117,3.4370117,3.4370117c1.8955078,0,3.4375-1.5419922,3.4375-3.4370117v-2.7084961H40.9765625z"/></g><g><path d="M50.0073242,33.0407715H38.8188477c-0.4140625,0-0.75-0.3359375-0.75-0.75s0.3359375-0.75,0.75-0.75h11.1884766
			c0.4140625,0,0.75,0.3359375,0.75,0.75S50.4213867,33.0407715,50.0073242,33.0407715z"/></g><g><g><path d="M41.8925781,33.0407715c-0.4140625,0-0.75-0.3359375-0.75-0.75v-5.1074219c0-0.4140625,0.3359375-0.75,0.75-0.75
				s0.75,0.3359375,0.75,0.75v5.1074219C42.6425781,32.704834,42.3066406,33.0407715,41.8925781,33.0407715z"/></g><g><path d="M46.9335938,33.0407715c-0.4140625,0-0.75-0.3359375-0.75-0.75v-5.1074219c0-0.4140625,0.3359375-0.75,0.75-0.75
				s0.75,0.3359375,0.75,0.75v5.1074219C47.6835938,32.704834,47.3476562,33.0407715,46.9335938,33.0407715z"/></g></g><g><path d="M44.6640625,37.1418457h-0.5019531c-0.4140625,0-0.75-0.3359375-0.75-0.75s0.3359375-0.75,0.75-0.75h0.5019531
			c0.4140625,0,0.75,0.3359375,0.75,0.75S45.078125,37.1418457,44.6640625,37.1418457z"/></g></g></svg>